<svg xmlns="http://www.w3.org/2000/svg" xmlns:xlink="http://www.w3.org/1999/xlink" xmlns:lucid="lucid" width="1993" height="2549"><g transform="translate(8284 811)" lucid:page-tab-id="0_0"><path d="M-8500-1500H2000v5000H-8500z" fill="#fff"/><path d="M-7840-734a6 6 0 0 1 6-6h1388a6 6 0 0 1 6 6v2368a6 6 0 0 1-6 6h-1388a6 6 0 0 1-6-6z" stroke="#000" stroke-width="2" fill-opacity="0"/><use xlink:href="#a" transform="matrix(1,0,0,1,-7832,-732) translate(552.7855902777778 21.52777777777778)"/><path d="M-7400-312.73c0 33.13-35.82 60-80 60s-80-26.87-80-60c0-33.14 35.82-60 80-60s80 26.86 80 60z" stroke="#000" stroke-width="2" fill="#fff"/><use xlink:href="#b" transform="matrix(1,0,0,1,-7560,-372.7330555555556) translate(42.07843749999999 57.466875)"/><use xlink:href="#c" transform="matrix(1,0,0,1,-7560,-372.7330555555556) translate(40.54993164062499 77.72162109375)"/><path d="M-7180-500c0 33.14-35.82 60-80 60s-80-26.86-80-60 35.82-60 80-60 80 26.86 80 60z" stroke="#000" stroke-width="2" fill="#fff"/><use xlink:href="#b" transform="matrix(1,0,0,1,-7340,-560) translate(42.07843749999999 57.466875)"/><use xlink:href="#d" transform="matrix(1,0,0,1,-7340,-560) translate(44.6000634765625 77.72162109375)"/><path d="M-7434.84-363.7l-.67-.68 41.33-41.34h1.35zm93.64-93.64l-30.1 30.1h-1.36l30.78-30.77z" stroke="#3a414a" stroke-width=".05" fill="#3a414a"/><path d="M-7434.83-363.72l-.25.26-.9-.46.48-.47z" fill="#3a414a"/><path stroke="#3a414a" stroke-width=".05" fill="#3a414a"/><path d="M-7337.9-454.75l-6.57-6.56 13.37-6.82z" fill="#3a414a"/><path d="M-7337.78-453.95l-7.48-7.5 15.25-7.75zm-5.9-7.23l5.64 5.63 5.85-11.48z" stroke="#3a414a" stroke-width=".05" fill="#3a414a"/><use xlink:href="#e" transform="matrix(1,0,0,1,-7436.873870875087,-427.23148290573664) translate(0 17.22222222222222)"/><path d="M-7180-280c0 33.14-35.82 60-80 60s-80-26.86-80-60 35.82-60 80-60 80 26.86 80 60z" stroke="#000" stroke-width="2" fill="#fff"/><use xlink:href="#f" transform="matrix(1,0,0,1,-7340,-340) translate(19.469628906249987 57.466875)"/><use xlink:href="#g" transform="matrix(1,0,0,1,-7340,-340) translate(87.565791015625 57.466875)"/><use xlink:href="#c" transform="matrix(1,0,0,1,-7340,-340) translate(40.54993164062499 77.72162109375)"/><path d="M-6540-380c0 33.14-35.82 60-80 60s-80-26.86-80-60 35.82-60 80-60 80 26.86 80 60z" stroke="#000" stroke-width="2" fill="#fff"/><use xlink:href="#h" transform="matrix(1,0,0,1,-6700,-440) translate(23.912104492187495 57.466875)"/><use xlink:href="#i" transform="matrix(1,0,0,1,-6700,-440) translate(112.0341455078125 57.466875)"/><use xlink:href="#j" transform="matrix(1,0,0,1,-6700,-440) translate(23.491152343749995 77.72162109375)"/><use xlink:href="#k" transform="matrix(1,0,0,1,-6700,-440) translate(62.80726562500001 77.72162109375)"/><path d="M-6540-540c0 33.14-35.82 60-80 60s-80-26.86-80-60 35.82-60 80-60 80 26.86 80 60z" stroke="#000" stroke-width="2" fill="#fff"/><use xlink:href="#l" transform="matrix(1,0,0,1,-6700,-600) translate(28.88587890625 57.466875)"/><use xlink:href="#m" transform="matrix(1,0,0,1,-6700,-600) translate(121.71604492187501 57.466875)"/><use xlink:href="#n" transform="matrix(1,0,0,1,-6700,-600) translate(30.90890136718749 77.72162109375)"/><path d="M-6980-540c0 33.14-35.82 60-80 60s-80-26.86-80-60 35.82-60 80-60 80 26.86 80 60z" stroke="#000" stroke-width="2" fill="#fff"/><use xlink:href="#o" transform="matrix(1,0,0,1,-7140,-600) translate(48.3109814453125 34.966875)"/><use xlink:href="#p" transform="matrix(1,0,0,1,-7140,-600) translate(44.28128417968749 55.22162109375)"/><use xlink:href="#q" transform="matrix(1,0,0,1,-7140,-600) translate(29.01666015624999 75.4763671875)"/><use xlink:href="#i" transform="matrix(1,0,0,1,-7140,-600) translate(106.92958984375001 75.4763671875)"/><use xlink:href="#r" transform="matrix(1,0,0,1,-7140,-600) translate(47.79603027343749 95.73111328125)"/><path d="M-6894.13-539.52h-84.37v-.96h84.37zm176.75 0h-68.5v-.96h68.5z" stroke="#3a414a" stroke-width=".05" fill="#3a414a"/><path d="M-6978.5-539.52h-.5v-.87l.5-.08z" fill="#3a414a"/><path stroke="#3a414a" stroke-width=".05" fill="#3a414a"/><path d="M-6702.62-540l-14.26 4.63v-9.26z" fill="#3a414a"/><path d="M-6701.08-540l-16.28 5.3v-10.6zm-15.33 3.98l12.24-3.98-12.25-3.98z" stroke="#3a414a" stroke-width=".05" fill="#3a414a"/><use xlink:href="#e" transform="matrix(1,0,0,1,-6894.131944444444,-550.7552083333334) translate(0 17.22222222222222)"/><path d="M-7000-192.73c0 33.13-35.82 60-80 60s-80-26.87-80-60c0-33.14 35.82-60 80-60s80 26.86 80 60z" stroke="#000" stroke-width="2" fill="#fff"/><use xlink:href="#s" transform="matrix(1,0,0,1,-7160,-252.7330555555556) translate(48.31098144531249 46.216875)"/><use xlink:href="#t" transform="matrix(1,0,0,1,-7160,-252.7330555555556) translate(18.194511718749986 66.47162109375)"/><use xlink:href="#u" transform="matrix(1,0,0,1,-7160,-252.7330555555556) translate(94.350068359375 66.47162109375)"/><use xlink:href="#v" transform="matrix(1,0,0,1,-7160,-252.7330555555556) translate(43.402597656249995 86.7263671875)"/><path d="M-6880-46c0 33.14-35.82 60-80 60s-80-26.86-80-60 35.82-60 80-60 80 26.86 80 60z" stroke="#000" stroke-width="2" fill="#fff"/><use xlink:href="#w" transform="matrix(1,0,0,1,-7040,-106) translate(44.53058593749999 57.466875)"/><use xlink:href="#c" transform="matrix(1,0,0,1,-7040,-106) translate(40.54993164062499 77.72162109375)"/><path d="M-6540-46c0 33.14-35.82 60-80 60s-80-26.86-80-60 35.82-60 80-60 80 26.86 80 60z" stroke="#000" stroke-width="2" fill="#fff"/><use xlink:href="#b" transform="matrix(1,0,0,1,-6700,-106) translate(42.07843749999999 57.466875)"/><use xlink:href="#d" transform="matrix(1,0,0,1,-6700,-106) translate(44.6000634765625 77.72162109375)"/><path d="M-6860-380c0 33.14-35.82 60-80 60s-80-26.86-80-60 35.82-60 80-60 80 26.86 80 60z" stroke="#000" stroke-width="2" fill="#fff"/><use xlink:href="#o" transform="matrix(1,0,0,1,-7020,-440) translate(48.3109814453125 34.966875)"/><use xlink:href="#p" transform="matrix(1,0,0,1,-7020,-440) translate(44.28128417968749 55.22162109375)"/><use xlink:href="#q" transform="matrix(1,0,0,1,-7020,-440) translate(29.01666015624999 75.4763671875)"/><use xlink:href="#i" transform="matrix(1,0,0,1,-7020,-440) translate(106.92958984375001 75.4763671875)"/><use xlink:href="#x" transform="matrix(1,0,0,1,-7020,-440) translate(59.492778320312496 95.73111328125)"/><path d="M-6836.15-379.52h-22.35v-.96h22.35zm118.77 0h-6.47v-.96h6.47z" stroke="#3a414a" stroke-width=".05" fill="#3a414a"/><path d="M-6858.5-379.52h-.5v-.87l.5-.08z" fill="#3a414a"/><path stroke="#3a414a" stroke-width=".05" fill="#3a414a"/><path d="M-6702.62-380l-14.26 4.63v-9.26z" fill="#3a414a"/><path d="M-6701.08-380l-16.28 5.3v-10.6zm-15.33 3.98l12.24-3.98-12.25-3.98z" stroke="#3a414a" stroke-width=".05" fill="#3a414a"/><use xlink:href="#y" transform="matrix(1,0,0,1,-6836.145833333333,-390.7552083333333) translate(0 17.22222222222222)"/><path d="M-6844.13-45.52h-34.37v-.95h34.37zm126.75 0h-18.5v-.95h18.5z" stroke="#3a414a" stroke-width=".05" fill="#3a414a"/><path d="M-6878.5-45.52h-.5v-.87l.5-.08z" fill="#3a414a"/><path stroke="#3a414a" stroke-width=".05" fill="#3a414a"/><path d="M-6702.62-46l-14.26 4.63v-9.27z" fill="#3a414a"/><path d="M-6701.08-46l-16.28 5.3v-10.6zm-15.33 3.98l12.24-3.98-12.25-3.98z" stroke="#3a414a" stroke-width=".05" fill="#3a414a"/><use xlink:href="#e" transform="matrix(1,0,0,1,-6844.131944444444,-56.75520833333333) translate(0 17.22222222222222)"/><path d="M-6820 108c0 33.14-35.82 60-80 60s-80-26.86-80-60 35.82-60 80-60 80 26.86 80 60z" stroke="#000" stroke-width="2" fill="#fff"/><use xlink:href="#z" transform="matrix(1,0,0,1,-6980,48) translate(46.30839355468749 57.466875)"/><use xlink:href="#c" transform="matrix(1,0,0,1,-6980,48) translate(40.54993164062499 77.72162109375)"/><path d="M-6740 260c0 33.14-35.82 60-80 60s-80-26.86-80-60 35.82-60 80-60 80 26.86 80 60z" stroke="#000" stroke-width="2" fill="#fff"/><use xlink:href="#A" transform="matrix(1,0,0,1,-6900,200) translate(16.85809082031249 64.966875)"/><use xlink:href="#x" transform="matrix(1,0,0,1,-6900,200) translate(102.1274658203125 64.966875)"/><path d="M-6740 400c0 33.14-35.82 60-80 60s-80-26.86-80-60 35.82-60 80-60 80 26.86 80 60z" stroke="#000" stroke-width="2" fill="#fff"/><use xlink:href="#o" transform="matrix(1,0,0,1,-6900,340) translate(48.31098144531249 46.216875)"/><use xlink:href="#t" transform="matrix(1,0,0,1,-6900,340) translate(18.194511718749986 66.47162109375)"/><use xlink:href="#u" transform="matrix(1,0,0,1,-6900,340) translate(94.350068359375 66.47162109375)"/><use xlink:href="#B" transform="matrix(1,0,0,1,-6900,340) translate(59.492778320312496 86.7263671875)"/><path d="M-6740 540c0 33.14-35.82 60-80 60s-80-26.86-80-60 35.82-60 80-60 80 26.86 80 60z" stroke="#000" stroke-width="2" fill="#fff"/><use xlink:href="#f" transform="matrix(1,0,0,1,-6900,480) translate(19.469628906249987 57.466875)"/><use xlink:href="#g" transform="matrix(1,0,0,1,-6900,480) translate(87.565791015625 57.466875)"/><use xlink:href="#x" transform="matrix(1,0,0,1,-6900,480) translate(59.492778320312496 77.72162109375)"/><path d="M-6740 680c0 33.14-35.82 60-80 60s-80-26.86-80-60 35.82-60 80-60 80 26.86 80 60z" stroke="#000" stroke-width="2" fill="#fff"/><use xlink:href="#C" transform="matrix(1,0,0,1,-6900,620) translate(21.66430175781249 64.966875)"/><use xlink:href="#x" transform="matrix(1,0,0,1,-6900,620) translate(97.3212548828125 64.966875)"/><path d="M-6740 820c0 33.14-35.82 60-80 60s-80-26.86-80-60 35.82-60 80-60 80 26.86 80 60z" stroke="#000" stroke-width="2" fill="#fff"/><use xlink:href="#D" transform="matrix(1,0,0,1,-6900,760) translate(23.442109374999994 64.966875)"/><use xlink:href="#x" transform="matrix(1,0,0,1,-6900,760) translate(95.543447265625 64.966875)"/><path d="M-6820 980c0 33.14-35.82 60-80 60s-80-26.86-80-60 35.82-60 80-60 80 26.86 80 60z" stroke="#000" stroke-width="2" fill="#fff"/><use xlink:href="#b" transform="matrix(1,0,0,1,-6980,920) translate(42.07843749999999 57.466875)"/><use xlink:href="#E" transform="matrix(1,0,0,1,-6980,920) translate(47.62846679687499 77.72162109375)"/><path d="M-7000 1300c0 33.14-35.82 60-80 60s-80-26.86-80-60 35.82-60 80-60 80 26.86 80 60z" stroke="#000" stroke-width="2" fill="#fff"/><use xlink:href="#o" transform="matrix(1,0,0,1,-7160,1240) translate(48.31098144531249 46.216875)"/><use xlink:href="#t" transform="matrix(1,0,0,1,-7160,1240) translate(18.194511718749986 66.47162109375)"/><use xlink:href="#u" transform="matrix(1,0,0,1,-7160,1240) translate(94.350068359375 66.47162109375)"/><use xlink:href="#F" transform="matrix(1,0,0,1,-7160,1240) translate(47.62846679687499 86.7263671875)"/><path d="M-6880 1140c0 33.14-35.82 60-80 60s-80-26.86-80-60 35.82-60 80-60 80 26.86 80 60z" stroke="#000" stroke-width="2" fill="#fff"/><use xlink:href="#f" transform="matrix(1,0,0,1,-7040,1080) translate(19.469628906249987 57.466875)"/><use xlink:href="#g" transform="matrix(1,0,0,1,-7040,1080) translate(87.565791015625 57.466875)"/><use xlink:href="#E" transform="matrix(1,0,0,1,-7040,1080) translate(47.62846679687499 77.72162109375)"/><path d="M-7180 1420c0 33.14-35.82 60-80 60s-80-26.86-80-60 35.82-60 80-60 80 26.86 80 60z" stroke="#000" stroke-width="2" fill="#fff"/><use xlink:href="#C" transform="matrix(1,0,0,1,-7340,1360) translate(9.799990234374983 64.966875)"/><use xlink:href="#E" transform="matrix(1,0,0,1,-7340,1360) translate(85.45694335937499 64.966875)"/><path d="M-7400 1500c0 33.14-35.82 60-80 60s-80-26.86-80-60 35.82-60 80-60 80 26.86 80 60z" stroke="#000" stroke-width="2" fill="#fff"/><use xlink:href="#D" transform="matrix(1,0,0,1,-7560,1440) translate(11.577797851562488 64.966875)"/><use xlink:href="#E" transform="matrix(1,0,0,1,-7560,1440) translate(83.6791357421875 64.966875)"/><path d="M-7213.63-330.47l-.77-.55 48.22-67.2h1.17zm103.02-143.55l-38.97 54.3h-1.17l39.36-54.85z" stroke="#3a414a" stroke-width=".05" fill="#3a414a"/><path d="M-7213.62-330.48l-.26.36-.85-.44.34-.47z" fill="#3a414a"/><path stroke="#3a414a" stroke-width=".05" fill="#3a414a"/><path d="M-7106.93-472l-7.54-5.4 12.1-8.9z" fill="#3a414a"/><path d="M-7106.68-471.23l-8.6-6.17 13.8-10.14zm-6.98-6.18l6.47 4.64 3.92-12.28z" stroke="#3a414a" stroke-width=".05" fill="#3a414a"/><use xlink:href="#e" transform="matrix(1,0,0,1,-7212.004491313485,-419.72653042369717) translate(0 17.22222222222222)"/><path d="M-7180.78-294.62l-.36-.88 44.8-18.3h2.5zm150.16-61.4l-50.6 20.7h-2.52l52.76-21.57z" stroke="#3a414a" stroke-width=".05" fill="#3a414a"/><path d="M-7018.3-361.56l-9.2 11.86-5.67-13.88z" fill="#3a414a"/><path d="M-7017.43-361.92l-10.2 13.16-6.3-15.4zm-9.94 11.28l8.18-10.56-13.22-1.8z" stroke="#3a414a" stroke-width=".05" fill="#3a414a"/><path d="M-7180.77-294.63l-.5.22-.15-.47-.16-.45.45-.2z" fill="#3a414a"/><path stroke="#3a414a" stroke-width=".05" fill="#3a414a"/><use xlink:href="#e" transform="matrix(1,0,0,1,-7162.923118992935,-335.32076242405043) translate(0 17.22222222222222)"/><path d="M-7260 980c0 33.14-35.82 60-80 60s-80-26.86-80-60 35.82-60 80-60 80 26.86 80 60z" stroke="#000" stroke-width="2" fill="#fff"/><use xlink:href="#G" transform="matrix(1,0,0,1,-7420,920) translate(21.50491210937499 64.966875)"/><use xlink:href="#F" transform="matrix(1,0,0,1,-7420,920) translate(73.752021484375 64.966875)"/><path d="M-7180 539c0 33.14-35.82 60-80 60s-80-26.86-80-60 35.82-60 80-60 80 26.86 80 60z" stroke="#000" stroke-width="2" fill="#fff"/><use xlink:href="#G" transform="matrix(1,0,0,1,-7340,479) translate(33.36922363281249 64.966875)"/><use xlink:href="#B" transform="matrix(1,0,0,1,-7340,479) translate(85.6163330078125 64.966875)"/><path d="M-7260 120c0 33.14-35.82 60-80 60s-80-26.86-80-60 35.82-60 80-60 80 26.86 80 60z" stroke="#000" stroke-width="2" fill="#fff"/><use xlink:href="#G" transform="matrix(1,0,0,1,-7420,60) translate(15.027153320312488 64.966875)"/><use xlink:href="#H" transform="matrix(1,0,0,1,-7420,60) translate(67.2742626953125 64.966875)"/><path d="M-7680.97 569.5v-49M-7680.97 569.5v.5M-7680.97 520.5v-.5" stroke="#3a414a" fill="none"/><path d="M-8161.63 428.38c0 15.67-12.7 28.37-28.37 28.37-15.67 0-28.38-12.7-28.38-28.38 0-15.67 12.7-28.37 28.38-28.37 15.67 0 28.38 12.7 28.38 28.38z" stroke="#000" stroke-width="2" fill="#fff"/><path d="M-8190 456.75v73.45a17.6 17.6 0 0 0 3.66 10.75L-8120 627m-70-90.8l-70 90.8m0-141.88h140" stroke="#000" stroke-width="2" fill="none"/><path d="M-8260 406a6 6 0 0 1 6-6h128a6 6 0 0 1 6 6v237a6 6 0 0 1-6 6h-128a6 6 0 0 1-6-6z" fill="none"/><use xlink:href="#I" transform="matrix(1,0,0,1,-8340,627) translate(121.61458333333334 21.52777777777778)"/><path d="M-8191.5 524.5h-35.84a3.66 3.66 0 0 0-3.66 3.66 3.66 3.66 0 0 0 3.66 3.66h72.68a3.66 3.66 0 0 1 3.66 3.66 3.66 3.66 0 0 1-3.66 3.65h-35.84M-8191.5 524.5h3.5M-8190.5 539.13h-3.5" stroke="#3a414a" fill="none"/><path d="M-7385.44 69.08l-.9.27-43.88-149.62h1zm-50.1-170.85h-.98l-39.86-135.92.9-.26z" stroke="#3a414a" stroke-width=".05" fill="#3a414a"/><path d="M-7468.87-240.42l-14.4 4.22 3.55-14.57z" fill="#3a414a"/><path d="M-7467.94-240.2l-15.98 4.7 3.93-16.2zm-14.66 3.3l12.8-3.74-9.65-9.22z" stroke="#3a414a" stroke-width=".05" fill="#3a414a"/><path d="M-7385.32 69.47l-.86.45-.17-.6.9-.25z" fill="#3a414a"/><path stroke="#3a414a" stroke-width=".05" fill="#3a414a"/><use xlink:href="#y" transform="matrix(1,0,0,1,-7489.0206853764785,-101.77536491771765) translate(0 17.22222222222222)"/><path d="M-7339.44 58.6l-.94-.18 23.82-129.58h.97zm48.75-265.24l-20.94 113.96h-.96l20.97-114.13z" stroke="#3a414a" stroke-width=".05" fill="#3a414a"/><path d="M-7286.5-206.38l-9.13-1.68 7.14-13.2z" fill="#3a414a"/><path d="M-7285.95-205.8l-10.4-1.9 8.14-15.06zm-8.95-2.6l7.83 1.44-1.7-12.78z" stroke="#3a414a" stroke-width=".05" fill="#3a414a"/><path d="M-7339.44 58.58l-.08.43h-.95l.1-.6z" fill="#3a414a"/><path stroke="#3a414a" stroke-width=".05" fill="#3a414a"/><use xlink:href="#y" transform="matrix(1,0,0,1,-7370.244356946006,-92.67515930562514) translate(0 17.22222222222222)"/><path d="M-7296.62 68.03l-.76-.57 73.06-96.22h1.2zm153.27-201.87l-63.45 83.57h-1.2l63.9-84.15z" stroke="#3a414a" stroke-width=".05" fill="#3a414a"/><path d="M-7139.73-131.72l-7.4-5.6 12.33-8.57z" fill="#3a414a"/><path d="M-7139.5-130.95l-8.43-6.4 14.06-9.77zm-6.8-6.36l6.33 4.8 4.24-12.17z" stroke="#3a414a" stroke-width=".05" fill="#3a414a"/><path d="M-7296.6 68.03l-.27.33-.43-.2-.45-.2.38-.5z" fill="#3a414a"/><path stroke="#3a414a" stroke-width=".05" fill="#3a414a"/><use xlink:href="#y" transform="matrix(1,0,0,1,-7271.7066550242525,-50.27165243906714) translate(0 17.22222222222222)"/><path d="M-7176.15 116.9l-82.33 3.55-.04-.95 82.37-3.55zm178.8-7.72l-66.5 2.87v-.95l66.46-2.87z" stroke="#3a414a" stroke-width=".05" fill="#3a414a"/><path d="M-6982.62 108.07l-14.05 5.25-.4-9.27z" fill="#3a414a"/><path d="M-6981.08 108l-16.04 6-.45-10.58zm-15.14 4.64l12.07-4.5-12.42-3.45z" stroke="#3a414a" stroke-width=".05" fill="#3a414a"/><path d="M-7258.47 120.45l-.54.03v-.87l.5-.1z" fill="#3a414a"/><path stroke="#3a414a" stroke-width=".05" fill="#3a414a"/><use xlink:href="#y" transform="matrix(1,0,0,1,-7176.145833333333,103.24479166666667) translate(0 17.22222222222222)"/><path d="M-7269.3 89.63l-.37-.87 93.86-41h2.37zm224.42-98.03l-79.3 34.65h-2.4l81.32-35.52z" stroke="#3a414a" stroke-width=".05" fill="#3a414a"/><path d="M-7269.28 89.63l-.36.15-.6-.77.58-.25z" fill="#3a414a"/><path stroke="#3a414a" stroke-width=".05" fill="#3a414a"/><path d="M-7042.76-4.8l-3.7-8.48 14.92-1.47z" fill="#3a414a"/><path d="M-7042.93-4l-4.24-9.7 17.04-1.66zm-2.84-8.88l3.18 7.3 9.65-8.55z" stroke="#3a414a" stroke-width=".05" fill="#3a414a"/><use xlink:href="#y" transform="matrix(1,0,0,1,-7206.145833333333,26.244791666666668) translate(0 17.22222222222222)"/><path d="M-7216.63 487.3l-.5-.82 143.98-88.24h1.82zm310.84-190.5l-130.43 79.94h-1.82L-6906.3 296z" stroke="#3a414a" stroke-width=".05" fill="#3a414a"/><path d="M-7216.6 487.28l-.2.12-.5-.25-.53-.23.72-.45z" fill="#3a414a"/><path stroke="#3a414a" stroke-width=".05" fill="#3a414a"/><path d="M-6903.2 300.08l-4.84-7.9 14.6-3.5z" fill="#3a414a"/><path d="M-6903.26 300.9l-5.52-9.03 16.64-4zm-4.03-8.4l4.17 6.78 8.37-9.8z" stroke="#3a414a" stroke-width=".05" fill="#3a414a"/><use xlink:href="#y" transform="matrix(1,0,0,1,-7110.8322391259035,376.7345514314114) translate(0 17.22222222222222)"/><path d="M-7192.68 504.67l-.32-.9 114.3-40.82h2.84zm276.4-98.7l-99.35 35.47h-2.82l101.86-36.38z" stroke="#3a414a" stroke-width=".05" fill="#3a414a"/><path d="M-6914.4 409.7l-3.12-8.72 15-.44z" fill="#3a414a"/><path d="M-6914.63 410.48l-3.56-9.96 17.12-.5zm-2.22-9.05l2.68 7.5 10.2-7.87z" stroke="#3a414a" stroke-width=".05" fill="#3a414a"/><path d="M-7192.67 504.66l-.3.1-.68-.76.66-.23z" fill="#3a414a"/><path stroke="#3a414a" stroke-width=".05" fill="#3a414a"/><use xlink:href="#y" transform="matrix(1,0,0,1,-7103.302420014464,441.43786413366126) translate(0 17.22222222222222)"/><path d="M-7096.16 540.48h-82.37v-.96h82.37zm178.78 0h-66.5v-.96h66.5z" stroke="#3a414a" stroke-width=".05" fill="#3a414a"/><path d="M-6902.62 540l-14.26 4.63v-9.26z" fill="#3a414a"/><path d="M-6901.08 540l-16.28 5.3v-10.6zm-15.33 3.98l12.24-3.98-12.25-3.98z" stroke="#3a414a" stroke-width=".05" fill="#3a414a"/><path d="M-7178.52 540.48h-.53l.03-.96h.5z" fill="#3a414a"/><path stroke="#3a414a" stroke-width=".05" fill="#3a414a"/><use xlink:href="#y" transform="matrix(1,0,0,1,-7096.161211046398,529.2447916666666) translate(0 17.22222222222222)"/><path d="M-6916.2 673.83l-.32.9-102.3-38.15h2.73zm-157.58-58.76h-2.72l-114.78-42.8.33-.9z" stroke="#3a414a" stroke-width=".05" fill="#3a414a"/><path d="M-6902.52 679.43l-14.98-.64 3.24-8.7z" fill="#3a414a"/><path d="M-6901.08 679.97l-17.1-.73 3.7-9.9zm-15.75-1.62l12.87.55-10.1-8z" stroke="#3a414a" stroke-width=".05" fill="#3a414a"/><path d="M-7190.94 571.4l-.33.88-.65-.25.67-.76z" fill="#3a414a"/><path stroke="#3a414a" stroke-width=".05" fill="#3a414a"/><use xlink:href="#y" transform="matrix(1,0,0,1,-7102.437255632732,615.0710508292677) translate(0 17.22222222222222)"/><path d="M-6913.93 809.92l-.56.77-129.6-95.13h1.6zm-157.86-115.86h-1.6l-141.37-103.74.57-.77z" stroke="#3a414a" stroke-width=".05" fill="#3a414a"/><path d="M-6902.3 819.04l-14.25-4.7 5.5-7.48z" fill="#3a414a"/><path d="M-6901.06 819.95l-16.26-5.37 6.26-8.52zm-14.72-5.86l12.24 4.03-7.53-10.46z" stroke="#3a414a" stroke-width=".05" fill="#3a414a"/><path d="M-7214.2 589.56l-.55.76-.6-.44.93-.5z" fill="#3a414a"/><path stroke="#3a414a" stroke-width=".05" fill="#3a414a"/><g><use xlink:href="#y" transform="matrix(1,0,0,1,-7114.089234090566,694.062805341605) translate(0 17.22222222222222)"/></g><path d="M-7176.15 980.48h-82.35v-.96h82.35zm178.77 0h-66.47v-.96h66.47z" stroke="#3a414a" stroke-width=".05" fill="#3a414a"/><path d="M-7258.5 980.48h-.5v-.87l.5-.08z" fill="#3a414a"/><path stroke="#3a414a" stroke-width=".05" fill="#3a414a"/><path d="M-6982.62 980l-14.26 4.63v-9.26z" fill="#3a414a"/><path d="M-6981.08 980l-16.28 5.3v-10.6zm-15.33 3.98l12.24-3.98-12.25-3.98z" stroke="#3a414a" stroke-width=".05" fill="#3a414a"/><g><use xlink:href="#y" transform="matrix(1,0,0,1,-7176.145833333333,969.2447916666666) translate(0 17.22222222222222)"/></g><path d="M-7055.05 1131.57l-.47.82-82-46.04h1.94zm-118.84-66.72h-1.94l-94.37-52.98.46-.83z" stroke="#3a414a" stroke-width=".05" fill="#3a414a"/><path d="M-7042.4 1139.2l-14.72-2.93 4.54-8.1z" fill="#3a414a"/><path d="M-7041.07 1139.96l-16.78-3.36 5.17-9.22zm-15.32-4.03l12.65 2.52-8.74-9.47z" stroke="#3a414a" stroke-width=".05" fill="#3a414a"/><path d="M-7269.73 1011.05l-.47.83-.5-.3.58-.75z" fill="#3a414a"/><path stroke="#3a414a" stroke-width=".05" fill="#3a414a"/><g><use xlink:href="#y" transform="matrix(1,0,0,1,-7211.851775394136,1064.8518605619963) translate(0 17.22222222222222)"/></g><path d="M-7146.97 1243.77l-.8.53-60.27-90.43h1.14zm-74.27-111.4h-1.14l-68.74-103.13.8-.53z" stroke="#3a414a" stroke-width=".05" fill="#3a414a"/><path d="M-7139.18 1256.32l-11.77-9.3 7.72-5.14z" fill="#3a414a"/><path d="M-7138.32 1257.6l-13.43-10.6 8.8-5.88zm-11.82-10.54l10.1 7.98-3.47-12.4z" stroke="#3a414a" stroke-width=".05" fill="#3a414a"/><path d="M-7290.32 1028.72l-.8.53-.3-.45.83-.5z" fill="#3a414a"/><path stroke="#3a414a" stroke-width=".05" fill="#3a414a"/><g><use xlink:href="#y" transform="matrix(1,0,0,1,-7270.785633446453,1132.3580364705633) translate(0 17.22222222222222)"/></g><path d="M-7294.9 1348.3l-.95.07-11.24-135.65h.96zm-13.02-157.1h-.96l-12.54-151.4.94-.07z" stroke="#3a414a" stroke-width=".05" fill="#3a414a"/><path d="M-7294.16 1363.05l-5.8-13.84 9.24-.76z" fill="#3a414a"/><path d="M-7294.03 1364.58l-6.62-15.8 10.54-.86zm-5.24-14.95l4.98 11.88 2.97-12.53z" stroke="#3a414a" stroke-width=".05" fill="#3a414a"/><path d="M-7320.48 1039.74l-.94.08-.04-.47.94-.15z" fill="#3a414a"/><path stroke="#3a414a" stroke-width=".05" fill="#3a414a"/><g><use xlink:href="#y" transform="matrix(1,0,0,1,-7363.654676334066,1191.2098441922428) translate(0 17.22222222222222)"/></g><path d="M-7475.3 1423.3l-.9-.25 46.86-174.75h.98zm103.7-386.6l-51 190.1h-.97l51.05-190.36z" stroke="#3a414a" stroke-width=".05" fill="#3a414a"/><path d="M-7471.4 1424.86l-8.18 12.58-.78-14.98z" fill="#3a414a"/><path d="M-7470.65 1424.57l-9.33 14.35-.9-17.1zm-8.53 11.38l7.02-10.8-7.7-2.06z" stroke="#3a414a" stroke-width=".05" fill="#3a414a"/><path d="M-7371.93 1036.08l.45.13-.13.5-.92-.25.14-.53z" fill="#3a414a"/><path stroke="#3a414a" stroke-width=".05" fill="#3a414a"/><g><use xlink:href="#y" transform="matrix(1,0,0,1,-7482.111681950993,1226.7856974301185) translate(0 17.22222222222222)"/></g><path d="M-7435.46 127.7l-624.1 332.06" stroke="#3a414a" fill="none"/><path d="M-7422.43 120.76l-10.4 10.8-4.37-8.2z" stroke="#3a414a" fill="#3a414a"/><path d="M-8059.55 459.76l-.45.24M-7357.38 539h-702.12" stroke="#3a414a" fill="none"/><path d="M-7342.62 539l-14.26 4.63v-9.26z" stroke="#3a414a" fill="#3a414a"/><path d="M-8059.5 539h-.5M-7435.08 971.63l-624.5-371.37" stroke="#3a414a" fill="none"/><path d="M-7422.4 979.17l-14.62-3.3 4.74-7.97z" stroke="#3a414a" fill="#3a414a"/><path d="M-8059.56 600.26l-.44-.26" stroke="#3a414a" fill="none"/><defs><path d="M598-1118v154H368v674c0 100 37 144 132 144 23 0 62-6 92-12L629-6c-37 13-88 20-134 20-193 0-307-107-307-290v-688H20v-154h168v-266h180v266h230" id="J"/><path d="M628 24c-324 0-524-230-524-574 0-343 198-582 503-582 237 0 487 146 487 559v75H286c9 234 145 362 343 362 132 0 231-58 273-172l174 48C1024-91 857 24 628 24zM287-650h624c-17-190-120-322-304-322-192 0-309 151-320 322" id="K"/><path d="M338-670V0H158v-1118h173l1 207c72-158 192-221 342-221 226 0 378 139 378 422V0H872v-695c0-172-96-275-252-275-161 0-282 109-282 300" id="L"/><path d="M158 0v-1118h180V0H158zm91-1301c-68 0-125-53-125-119s57-119 125-119c69 0 126 53 126 119s-57 119-126 119" id="M"/><path d="M538 24C308 24 148-78 108-271l171-41c32 123 123 178 257 178 156 0 256-77 256-169 0-77-54-128-164-154l-186-44c-203-48-300-148-300-305 0-192 176-326 414-326 230 0 351 112 402 269l-163 42c-31-80-94-158-238-158-133 0-233 69-233 162 0 83 57 129 188 160l169 40c203 48 298 149 298 302 0 196-179 339-441 339" id="N"/><path d="M613 24c-304 0-509-231-509-576 0-350 205-580 509-580 216 0 392 114 453 309l-173 49c-33-115-133-197-280-197-223 0-326 196-326 419 0 220 103 415 326 415 150 0 252-85 285-206l172 49C1010-95 832 24 613 24" id="O"/><path d="M338-1490V0H158v-1490h180" id="P"/><path d="M537 14c-226 0-379-139-379-422v-710h180v695c0 172 97 275 253 275 160 0 281-109 281-300v-670h181V0H879v-209C806-46 684 14 537 14" id="Q"/><path d="M677 24c-213 0-288-135-325-197h-20V0H158v-1490h180v551h14c37-59 106-193 324-193 279 0 474 222 474 576 0 356-194 580-473 580zm-27-161c209 0 317-186 317-421 0-232-105-413-317-413-206 0-314 166-314 413 0 249 111 421 314 421" id="R"/><path d="M798-719v166H144v-166h654" id="S"/><path d="M158 0v-1118h174v172h12c41-113 157-188 290-188 26 0 70 2 91 3v181c-11-2-60-10-108-10-161 0-279 109-279 260V0H158" id="T"/><path d="M481 0L54-1118h197c107 314 236 620 325 951 87-331 217-637 324-951h197L670 0H481" id="U"/><path d="M471 26C259 26 90-98 90-318c0-256 228-303 435-329 202-27 287-16 287-108 0-139-79-219-234-219-161 0-248 86-283 164l-173-57c86-203 278-265 451-265 150 0 419 46 419 395V0H815v-152h-12C765-73 660 26 471 26zm31-159c199 0 310-134 310-271v-155c-30 35-226 55-295 64-131 17-246 59-246 186 0 116 97 176 231 176" id="V"/><path d="M613 24c-304 0-509-231-509-576 0-350 205-580 509-580 305 0 511 230 511 580 0 345-206 576-511 576zm0-161c226 0 329-195 329-415 0-222-103-419-329-419-223 0-326 196-326 419 0 220 103 415 326 415" id="W"/><path d="M158 418v-1536h174v179h20c37-59 106-193 324-193 279 0 474 222 474 576 0 356-194 580-473 580-213 0-288-135-325-197h-14v591H158zm492-555c209 0 317-186 317-421 0-232-105-413-317-413-206 0-314 166-314 413 0 249 111 421 314 421" id="X"/><g id="a"><use transform="matrix(0.010850694444444444,0,0,0.010850694444444444,0,0)" xlink:href="#J"/><use transform="matrix(0.010850694444444444,0,0,0.010850694444444444,7.052951388888888,0)" xlink:href="#K"/><use transform="matrix(0.010850694444444444,0,0,0.010850694444444444,20.008680555555554,0)" xlink:href="#L"/><use transform="matrix(0.010850694444444444,0,0,0.010850694444444444,33.13802083333333,0)" xlink:href="#L"/><use transform="matrix(0.010850694444444444,0,0,0.010850694444444444,46.26736111111111,0)" xlink:href="#M"/><use transform="matrix(0.010850694444444444,0,0,0.010850694444444444,51.64930555555556,0)" xlink:href="#N"/><use transform="matrix(0.010850694444444444,0,0,0.010850694444444444,63.37890625,0)" xlink:href="#O"/><use transform="matrix(0.010850694444444444,0,0,0.010850694444444444,76.07421875,0)" xlink:href="#P"/><use transform="matrix(0.010850694444444444,0,0,0.010850694444444444,81.45616319444444,0)" xlink:href="#Q"/><use transform="matrix(0.010850694444444444,0,0,0.010850694444444444,94.59635416666666,0)" xlink:href="#R"/><use transform="matrix(0.010850694444444444,0,0,0.010850694444444444,108.20312499999997,0)" xlink:href="#S"/><use transform="matrix(0.010850694444444444,0,0,0.010850694444444444,118.42447916666666,0)" xlink:href="#T"/><use transform="matrix(0.010850694444444444,0,0,0.010850694444444444,126.42144097222221,0)" xlink:href="#K"/><use transform="matrix(0.010850694444444444,0,0,0.010850694444444444,139.37717013888889,0)" xlink:href="#N"/><use transform="matrix(0.010850694444444444,0,0,0.010850694444444444,151.10677083333334,0)" xlink:href="#K"/><use transform="matrix(0.010850694444444444,0,0,0.010850694444444444,164.0625,0)" xlink:href="#T"/><use transform="matrix(0.010850694444444444,0,0,0.010850694444444444,172.77560763888889,0)" xlink:href="#U"/><use transform="matrix(0.010850694444444444,0,0,0.010850694444444444,185.15624999999994,0)" xlink:href="#V"/><use transform="matrix(0.010850694444444444,0,0,0.010850694444444444,197.63454861111111,0)" xlink:href="#J"/><use transform="matrix(0.010850694444444444,0,0,0.010850694444444444,204.90451388888883,0)" xlink:href="#M"/><use transform="matrix(0.010850694444444444,0,0,0.010850694444444444,210.28645833333331,0)" xlink:href="#W"/><use transform="matrix(0.010850694444444444,0,0,0.010850694444444444,223.61111111111111,0)" xlink:href="#L"/><use transform="matrix(0.010850694444444444,0,0,0.010850694444444444,236.74045138888883,0)" xlink:href="#S"/><use transform="matrix(0.010850694444444444,0,0,0.010850694444444444,246.96180555555551,0)" xlink:href="#V"/><use transform="matrix(0.010850694444444444,0,0,0.010850694444444444,259.44010416666663,0)" xlink:href="#X"/><use transform="matrix(0.010850694444444444,0,0,0.010850694444444444,273.04687499999994,0)" xlink:href="#M"/></g><path d="M600 0L52-1490h200c166 485 304 806 458 1336 156-533 285-846 449-1336h202L819 0H600" id="Y"/><path d="M140 405l46-156c120 36 205 19 263-150l32-93L54-1118h197c107 313 237 620 324 950 87-331 219-637 326-950h196L606 167c-68 178-176 259-334 259-64 0-113-12-132-21" id="Z"/><path d="M158 0v-1118h174v172h12c41-113 157-188 290-188 26 0 70 2 91 3v181c-11-2-60-10-108-10-161 0-279 109-279 260V0H158zm125-1558l144 175 142-175h179v9l-236 267H341l-235-267v-9h177" id="aa"/><path d="M158 0v-1118h180V0H158zm12-1264l140-294h201l-194 294H170" id="ab"/><g id="b"><use transform="matrix(0.008173828125000001,0,0,0.008173828125000001,0,0)" xlink:href="#Y"/><use transform="matrix(0.008173828125000001,0,0,0.008173828125000001,11.549619140625001,0)" xlink:href="#Z"/><use transform="matrix(0.008173828125000001,0,0,0.008173828125000001,21.202910156250002,0)" xlink:href="#J"/><use transform="matrix(0.008173828125000001,0,0,0.008173828125000001,27.006328125000003,0)" xlink:href="#U"/><use transform="matrix(0.008173828125000001,0,0,0.008173828125000001,36.087451171875,0)" xlink:href="#W"/><use transform="matrix(0.008173828125000001,0,0,0.008173828125000001,46.124912109375,0)" xlink:href="#aa"/><use transform="matrix(0.008173828125000001,0,0,0.008173828125000001,52.149023437500006,0)" xlink:href="#K"/><use transform="matrix(0.008173828125000001,0,0,0.008173828125000001,61.908574218750005,0)" xlink:href="#L"/><use transform="matrix(0.008173828125000001,0,0,0.008173828125000001,71.79890625,0)" xlink:href="#ab"/></g><path d="M126 0v-134l627-806v-11H146v-167h839v143L376-178v11h629V0H126" id="ac"/><g id="c"><use transform="matrix(0.008173828125000001,0,0,0.008173828125000001,0,0)" xlink:href="#T"/><use transform="matrix(0.008173828125000001,0,0,0.008173828125000001,6.0241113281250005,0)" xlink:href="#K"/><use transform="matrix(0.008173828125000001,0,0,0.008173828125000001,15.538447265625,0)" xlink:href="#ac"/><use transform="matrix(0.008173828125000001,0,0,0.008173828125000001,24.53783203125,0)" xlink:href="#K"/><use transform="matrix(0.008173828125000001,0,0,0.008173828125000001,34.297382812500004,0)" xlink:href="#T"/><use transform="matrix(0.008173828125000001,0,0,0.008173828125000001,40.860966796875005,0)" xlink:href="#U"/><use transform="matrix(0.008173828125000001,0,0,0.008173828125000001,50.18730468750001,0)" xlink:href="#V"/><use transform="matrix(0.008173828125000001,0,0,0.008173828125000001,59.58720703125001,0)" xlink:href="#O"/><use transform="matrix(0.008173828125000001,0,0,0.008173828125000001,69.15058593750001,0)" xlink:href="#K"/></g><path d="M126 0v-134l627-806v-11H146v-167h839v143L376-178v11h629V0H126zm285-1558l144 175 142-175h179v9l-236 267H469l-235-267v-9h177" id="ad"/><g id="d"><use transform="matrix(0.008173828125000001,0,0,0.008173828125000001,0,0)" xlink:href="#Q"/><use transform="matrix(0.008173828125000001,0,0,0.008173828125000001,9.898505859375001,0)" xlink:href="#ad"/><use transform="matrix(0.008173828125000001,0,0,0.008173828125000001,19.14310546875,0)" xlink:href="#M"/><use transform="matrix(0.008173828125000001,0,0,0.008173828125000001,23.19732421875,0)" xlink:href="#U"/><use transform="matrix(0.008173828125000001,0,0,0.008173828125000001,32.523662109375,0)" xlink:href="#V"/><use transform="matrix(0.008173828125000001,0,0,0.008173828125000001,41.923564453125,0)" xlink:href="#J"/><use transform="matrix(0.008173828125000001,0,0,0.008173828125000001,47.236552734375,0)" xlink:href="#K"/><use transform="matrix(0.008173828125000001,0,0,0.008173828125000001,56.996103515625,0)" xlink:href="#P"/><use transform="matrix(0.008173828125000001,0,0,0.008173828125000001,61.050322265625,0)" xlink:href="#K"/></g><path fill="#333" d="M166-471v-247l1019-454v289L492-601v13l693 282v287" id="ae"/><path fill="#333" d="M633 22C291 22 81-200 81-553c0-345 210-579 537-579 292 0 525 185 525 567v84H378c7 183 109 277 260 277 105 0 184-46 216-132l272 51C1071-99 893 22 633 22zM380-669h474c-15-146-94-237-233-237-143 0-229 99-241 237" id="af"/><path fill="#333" d="M42 0l360-574-338-544h324c72 124 151 261 209 394 58-134 140-271 215-394h318L785-570 1146 0H824c-79-136-169-280-234-425C528-278 439-134 360 0H42" id="ag"/><path fill="#333" d="M683-1118v229H474v562c0 71 29 104 102 104 23 0 73-7 95-13l43 225C647 9 580 16 520 16 296 16 174-96 174-301v-588H20v-229h154v-266h300v266h209" id="ah"/><path fill="#333" d="M428-647V0H128v-1118h283l4 231c63-156 176-245 348-245 232 0 384 159 384 421V0H847v-659c0-139-76-222-202-222-128 0-217 86-217 234" id="ai"/><path fill="#333" d="M537 19C279 19 81-185 81-557c0-382 206-575 454-575 190 0 278 113 318 202h10v-560h300V0H868v-179h-15C812-89 719 19 537 19zm92-241c153 0 240-134 240-336 0-203-86-334-240-334-158 0-240 138-240 334 0 197 84 336 240 336" id="aj"/><path fill="#333" d="M1224-471L205-19v-287l694-281v-14L205-883v-289l1019 454v247" id="ak"/><g id="e"><use transform="matrix(0.008680555555555556,0,0,0.008680555555555556,0,0)" xlink:href="#ae"/><use transform="matrix(0.008680555555555556,0,0,0.008680555555555556,12.065972222222223,0)" xlink:href="#ae"/><use transform="matrix(0.008680555555555556,0,0,0.008680555555555556,24.131944444444446,0)" xlink:href="#af"/><use transform="matrix(0.008680555555555556,0,0,0.008680555555555556,34.36631944444444,0)" xlink:href="#ag"/><use transform="matrix(0.008680555555555556,0,0,0.008680555555555556,44.93055555555556,0)" xlink:href="#ah"/><use transform="matrix(0.008680555555555556,0,0,0.008680555555555556,51.26736111111111,0)" xlink:href="#af"/><use transform="matrix(0.008680555555555556,0,0,0.008680555555555556,61.857638888888886,0)" xlink:href="#ai"/><use transform="matrix(0.008680555555555556,0,0,0.008680555555555556,72.92534722222221,0)" xlink:href="#aj"/><use transform="matrix(0.008680555555555556,0,0,0.008680555555555556,84.13194444444444,0)" xlink:href="#ak"/><use transform="matrix(0.008680555555555556,0,0,0.008680555555555556,96.19791666666667,0)" xlink:href="#ak"/></g><path d="M471 26C259 26 90-98 90-318c0-256 228-303 435-329 202-27 287-16 287-108 0-139-79-219-234-219-161 0-248 86-283 164l-173-57c86-203 278-265 451-265 150 0 419 46 419 395V0H815v-152h-12C765-73 660 26 471 26zm31-159c199 0 310-134 310-271v-155c-30 35-226 55-295 64-131 17-246 59-246 186 0 116 97 176 231 176zm-23-1131l140-294h201l-194 294H479" id="al"/><g id="f"><use transform="matrix(0.008173828125000001,0,0,0.008173828125000001,0,0)" xlink:href="#Y"/><use transform="matrix(0.008173828125000001,0,0,0.008173828125000001,11.549619140625001,0)" xlink:href="#Z"/><use transform="matrix(0.008173828125000001,0,0,0.008173828125000001,20.9576953125,0)" xlink:href="#X"/><use transform="matrix(0.008173828125000001,0,0,0.008173828125000001,31.207675781250003,0)" xlink:href="#N"/><use transform="matrix(0.008173828125000001,0,0,0.008173828125000001,40.043583984375005,0)" xlink:href="#al"/><use transform="matrix(0.008173828125000001,0,0,0.008173828125000001,49.443486328125005,0)" xlink:href="#L"/><use transform="matrix(0.008173828125000001,0,0,0.008173828125000001,59.333818359375,0)" xlink:href="#ab"/></g><path d="M577 24c-279 0-473-224-473-580 0-354 195-576 474-576 218 0 287 134 324 193h14v-551h180V0H922v-173h-20C865-111 790 24 577 24zm27-161c203 0 314-172 314-421 0-247-108-413-314-413-212 0-317 181-317 413 0 235 108 421 317 421" id="am"/><g id="g"><use transform="matrix(0.008173828125000001,0,0,0.008173828125000001,0,0)" xlink:href="#am"/><use transform="matrix(0.008173828125000001,0,0,0.008173828125000001,10.249980468750001,0)" xlink:href="#K"/><use transform="matrix(0.008173828125000001,0,0,0.008173828125000001,20.009531250000002,0)" xlink:href="#J"/><use transform="matrix(0.008173828125000001,0,0,0.008173828125000001,25.567734375000004,0)" xlink:href="#V"/><use transform="matrix(0.008173828125000001,0,0,0.008173828125000001,34.96763671875001,0)" xlink:href="#M"/><use transform="matrix(0.008173828125000001,0,0,0.008173828125000001,39.021855468750005,0)" xlink:href="#P"/><use transform="matrix(0.008173828125000001,0,0,0.008173828125000001,43.07607421875001,0)" xlink:href="#Q"/></g><path d="M180 0v-1490h510c348 0 508 194 508 460 0 198-88 351-276 417L1256 0h-220L726-579c-117 2-238 0-356 1V0H180zm190-747h312c235 0 327-108 327-283 0-177-92-293-329-293H370v576" id="an"/><g id="h"><use transform="matrix(0.008173828125000001,0,0,0.008173828125000001,0,0)" xlink:href="#an"/><use transform="matrix(0.008173828125000001,0,0,0.008173828125000001,10.527890625000001,0)" xlink:href="#K"/><use transform="matrix(0.008173828125000001,0,0,0.008173828125000001,20.0422265625,0)" xlink:href="#ac"/><use transform="matrix(0.008173828125000001,0,0,0.008173828125000001,29.041611328125004,0)" xlink:href="#K"/><use transform="matrix(0.008173828125000001,0,0,0.008173828125000001,38.80116210937501,0)" xlink:href="#T"/><use transform="matrix(0.008173828125000001,0,0,0.008173828125000001,45.36474609375,0)" xlink:href="#U"/><use transform="matrix(0.008173828125000001,0,0,0.008173828125000001,54.691083984375005,0)" xlink:href="#V"/><use transform="matrix(0.008173828125000001,0,0,0.008173828125000001,64.09098632812501,0)" xlink:href="#O"/><use transform="matrix(0.008173828125000001,0,0,0.008173828125000001,73.654365234375,0)" xlink:href="#K"/></g><g id="i"><use transform="matrix(0.008173828125000001,0,0,0.008173828125000001,0,0)" xlink:href="#am"/><use transform="matrix(0.008173828125000001,0,0,0.008173828125000001,10.249980468750001,0)" xlink:href="#P"/><use transform="matrix(0.008173828125000001,0,0,0.008173828125000001,14.304199218750002,0)" xlink:href="#K"/></g><g id="j"><use transform="matrix(0.008173828125000001,0,0,0.008173828125000001,0,0)" xlink:href="#am"/><use transform="matrix(0.008173828125000001,0,0,0.008173828125000001,10.249980468750001,0)" xlink:href="#V"/><use transform="matrix(0.008173828125000001,0,0,0.008173828125000001,19.649882812500003,0)" xlink:href="#J"/><use transform="matrix(0.008173828125000001,0,0,0.008173828125000001,25.208085937500005,0)" xlink:href="#V"/></g><g id="k"><use transform="matrix(0.008173828125000001,0,0,0.008173828125000001,0,0)" xlink:href="#U"/><use transform="matrix(0.008173828125000001,0,0,0.008173828125000001,9.408076171875,0)" xlink:href="#Z"/><use transform="matrix(0.008173828125000001,0,0,0.008173828125000001,19.061367187500004,0)" xlink:href="#J"/><use transform="matrix(0.008173828125000001,0,0,0.008173828125000001,24.864785156250004,0)" xlink:href="#U"/><use transform="matrix(0.008173828125000001,0,0,0.008173828125000001,33.945908203125,0)" xlink:href="#W"/><use transform="matrix(0.008173828125000001,0,0,0.008173828125000001,43.98336914062501,0)" xlink:href="#aa"/><use transform="matrix(0.008173828125000001,0,0,0.008173828125000001,50.00748046875,0)" xlink:href="#K"/><use transform="matrix(0.008173828125000001,0,0,0.008173828125000001,59.76703125,0)" xlink:href="#L"/><use transform="matrix(0.008173828125000001,0,0,0.008173828125000001,69.65736328125,0)" xlink:href="#ab"/></g><g id="l"><use transform="matrix(0.008173828125000001,0,0,0.008173828125000001,0,0)" xlink:href="#an"/><use transform="matrix(0.008173828125000001,0,0,0.008173828125000001,10.527890625000001,0)" xlink:href="#K"/><use transform="matrix(0.008173828125000001,0,0,0.008173828125000001,20.0422265625,0)" xlink:href="#ac"/><use transform="matrix(0.008173828125000001,0,0,0.008173828125000001,29.041611328125004,0)" xlink:href="#K"/><use transform="matrix(0.008173828125000001,0,0,0.008173828125000001,38.80116210937501,0)" xlink:href="#T"/><use transform="matrix(0.008173828125000001,0,0,0.008173828125000001,45.36474609375,0)" xlink:href="#U"/><use transform="matrix(0.008173828125000001,0,0,0.008173828125000001,54.691083984375005,0)" xlink:href="#V"/><use transform="matrix(0.008173828125000001,0,0,0.008173828125000001,64.09098632812501,0)" xlink:href="#O"/><use transform="matrix(0.008173828125000001,0,0,0.008173828125000001,73.654365234375,0)" xlink:href="#K"/></g><use transform="matrix(0.008173828125000001,0,0,0.008173828125000001,0,0)" xlink:href="#U" id="m"/><g id="n"><use transform="matrix(0.008173828125000001,0,0,0.008173828125000001,0,0)" xlink:href="#R"/><use transform="matrix(0.008173828125000001,0,0,0.008173828125000001,10.249980468750001,0)" xlink:href="#Q"/><use transform="matrix(0.008173828125000001,0,0,0.008173828125000001,20.148486328125003,0)" xlink:href="#am"/><use transform="matrix(0.008173828125000001,0,0,0.008173828125000001,30.398466796875006,0)" xlink:href="#W"/><use transform="matrix(0.008173828125000001,0,0,0.008173828125000001,40.43592773437501,0)" xlink:href="#Q"/><use transform="matrix(0.008173828125000001,0,0,0.008173828125000001,50.334433593750006,0)" xlink:href="#O"/><use transform="matrix(0.008173828125000001,0,0,0.008173828125000001,59.89781250000001,0)" xlink:href="#L"/><use transform="matrix(0.008173828125000001,0,0,0.008173828125000001,69.78814453125001,0)" xlink:href="#W"/><use transform="matrix(0.008173828125000001,0,0,0.008173828125000001,79.82560546875001,0)" xlink:href="#N"/><use transform="matrix(0.008173828125000001,0,0,0.008173828125000001,88.66151367187501,0)" xlink:href="#J"/><use transform="matrix(0.008173828125000001,0,0,0.008173828125000001,94.13797851562501,0)" xlink:href="#M"/></g><g id="o"><use transform="matrix(0.008173828125000001,0,0,0.008173828125000001,0,0)" xlink:href="#Y"/><use transform="matrix(0.008173828125000001,0,0,0.008173828125000001,11.549619140625001,0)" xlink:href="#Z"/><use transform="matrix(0.008173828125000001,0,0,0.008173828125000001,20.9576953125,0)" xlink:href="#X"/><use transform="matrix(0.008173828125000001,0,0,0.008173828125000001,31.207675781250003,0)" xlink:href="#N"/><use transform="matrix(0.008173828125000001,0,0,0.008173828125000001,40.043583984375005,0)" xlink:href="#al"/><use transform="matrix(0.008173828125000001,0,0,0.008173828125000001,49.443486328125005,0)" xlink:href="#L"/><use transform="matrix(0.008173828125000001,0,0,0.008173828125000001,59.333818359375,0)" xlink:href="#ab"/></g><path d="M158 0v-1118h175l1 205c55-151 181-225 313-225 147 0 245 90 285 228 53-141 190-228 352-228 194 0 352 125 352 384V0h-181v-749c0-161-105-225-225-225-151 0-243 103-243 244V0H807v-767c0-124-93-207-219-207-131 0-250 92-250 270V0H158" id="ao"/><g id="p"><use transform="matrix(0.008173828125000001,0,0,0.008173828125000001,0,0)" xlink:href="#N"/><use transform="matrix(0.008173828125000001,0,0,0.008173828125000001,8.835908203125001,0)" xlink:href="#K"/><use transform="matrix(0.008173828125000001,0,0,0.008173828125000001,18.350244140625,0)" xlink:href="#ac"/><use transform="matrix(0.008173828125000001,0,0,0.008173828125000001,27.594843750000003,0)" xlink:href="#L"/><use transform="matrix(0.008173828125000001,0,0,0.008173828125000001,37.48517578125001,0)" xlink:href="#V"/><use transform="matrix(0.008173828125000001,0,0,0.008173828125000001,46.88507812500001,0)" xlink:href="#ao"/><use transform="matrix(0.008173828125000001,0,0,0.008173828125000001,61.548925781250006,0)" xlink:href="#Q"/></g><g id="q"><use transform="matrix(0.008173828125000001,0,0,0.008173828125000001,0,0)" xlink:href="#T"/><use transform="matrix(0.008173828125000001,0,0,0.008173828125000001,6.0241113281250005,0)" xlink:href="#K"/><use transform="matrix(0.008173828125000001,0,0,0.008173828125000001,15.538447265625,0)" xlink:href="#ac"/><use transform="matrix(0.008173828125000001,0,0,0.008173828125000001,24.53783203125,0)" xlink:href="#K"/><use transform="matrix(0.008173828125000001,0,0,0.008173828125000001,34.297382812500004,0)" xlink:href="#T"/><use transform="matrix(0.008173828125000001,0,0,0.008173828125000001,40.860966796875005,0)" xlink:href="#U"/><use transform="matrix(0.008173828125000001,0,0,0.008173828125000001,50.18730468750001,0)" xlink:href="#V"/><use transform="matrix(0.008173828125000001,0,0,0.008173828125000001,59.58720703125001,0)" xlink:href="#O"/><use transform="matrix(0.008173828125000001,0,0,0.008173828125000001,69.15058593750001,0)" xlink:href="#ab"/></g><path d="M678-1118v154H420V0H240v-964H20v-154h220v-149c0-194 155-293 318-293 85 0 141 18 168 30l-50 154c-19-6-47-17-97-17-111 0-159 58-159 166v109h258" id="ap"/><g id="r"><use transform="matrix(0.008173828125000001,0,0,0.008173828125000001,0,0)" xlink:href="#J"/><use transform="matrix(0.008173828125000001,0,0,0.008173828125000001,5.312988281250001,0)" xlink:href="#K"/><use transform="matrix(0.008173828125000001,0,0,0.008173828125000001,15.072539062500002,0)" xlink:href="#P"/><use transform="matrix(0.008173828125000001,0,0,0.008173828125000001,19.126757812500003,0)" xlink:href="#K"/><use transform="matrix(0.008173828125000001,0,0,0.008173828125000001,28.88630859375,0)" xlink:href="#ap"/><use transform="matrix(0.008173828125000001,0,0,0.008173828125000001,34.591640625000004,0)" xlink:href="#W"/><use transform="matrix(0.008173828125000001,0,0,0.008173828125000001,44.629101562500004,0)" xlink:href="#L"/><use transform="matrix(0.008173828125000001,0,0,0.008173828125000001,54.51943359375001,0)" xlink:href="#Q"/></g><g id="s"><use transform="matrix(0.008173828125000001,0,0,0.008173828125000001,0,0)" xlink:href="#Y"/><use transform="matrix(0.008173828125000001,0,0,0.008173828125000001,11.549619140625001,0)" xlink:href="#Z"/><use transform="matrix(0.008173828125000001,0,0,0.008173828125000001,20.9576953125,0)" xlink:href="#X"/><use transform="matrix(0.008173828125000001,0,0,0.008173828125000001,31.207675781250003,0)" xlink:href="#N"/><use transform="matrix(0.008173828125000001,0,0,0.008173828125000001,40.043583984375005,0)" xlink:href="#al"/><use transform="matrix(0.008173828125000001,0,0,0.008173828125000001,49.443486328125005,0)" xlink:href="#L"/><use transform="matrix(0.008173828125000001,0,0,0.008173828125000001,59.333818359375,0)" xlink:href="#ab"/></g><g id="t"><use transform="matrix(0.008173828125000001,0,0,0.008173828125000001,0,0)" xlink:href="#N"/><use transform="matrix(0.008173828125000001,0,0,0.008173828125000001,8.835908203125001,0)" xlink:href="#K"/><use transform="matrix(0.008173828125000001,0,0,0.008173828125000001,18.350244140625,0)" xlink:href="#ac"/><use transform="matrix(0.008173828125000001,0,0,0.008173828125000001,27.594843750000003,0)" xlink:href="#L"/><use transform="matrix(0.008173828125000001,0,0,0.008173828125000001,37.48517578125001,0)" xlink:href="#V"/><use transform="matrix(0.008173828125000001,0,0,0.008173828125000001,46.88507812500001,0)" xlink:href="#ao"/><use transform="matrix(0.008173828125000001,0,0,0.008173828125000001,61.548925781250006,0)" xlink:href="#Q"/></g><path d="M538 24C308 24 148-78 108-271l171-41c32 123 123 178 257 178 156 0 256-77 256-169 0-77-54-128-164-154l-186-44c-203-48-300-148-300-305 0-192 176-326 414-326 230 0 351 112 402 269l-163 42c-31-80-94-158-238-158-133 0-233 69-233 162 0 83 57 129 188 160l169 40c203 48 298 149 298 302 0 196-179 339-441 339zM409-1558l144 175 142-175h179v9l-236 267H467l-235-267v-9h177" id="aq"/><path d="M338-670V0H158v-1490h180v566c73-149 190-208 336-208 226 0 379 139 379 422V0H872v-695c0-172-96-275-252-275-161 0-282 109-282 300" id="ar"/><g id="u"><use transform="matrix(0.008173828125000001,0,0,0.008173828125000001,0,0)" xlink:href="#U"/><use transform="matrix(0.008173828125000001,0,0,0.008173828125000001,9.408076171875,0)" xlink:href="#aq"/><use transform="matrix(0.008173828125000001,0,0,0.008173828125000001,18.243984375000004,0)" xlink:href="#K"/><use transform="matrix(0.008173828125000001,0,0,0.008173828125000001,28.003535156250003,0)" xlink:href="#O"/><use transform="matrix(0.008173828125000001,0,0,0.008173828125000001,37.566914062500004,0)" xlink:href="#ar"/></g><g id="v"><use transform="matrix(0.008173828125000001,0,0,0.008173828125000001,0,0)" xlink:href="#T"/><use transform="matrix(0.008173828125000001,0,0,0.008173828125000001,6.0241113281250005,0)" xlink:href="#K"/><use transform="matrix(0.008173828125000001,0,0,0.008173828125000001,15.538447265625,0)" xlink:href="#ac"/><use transform="matrix(0.008173828125000001,0,0,0.008173828125000001,24.53783203125,0)" xlink:href="#K"/><use transform="matrix(0.008173828125000001,0,0,0.008173828125000001,34.297382812500004,0)" xlink:href="#T"/><use transform="matrix(0.008173828125000001,0,0,0.008173828125000001,40.860966796875005,0)" xlink:href="#U"/><use transform="matrix(0.008173828125000001,0,0,0.008173828125000001,50.18730468750001,0)" xlink:href="#V"/><use transform="matrix(0.008173828125000001,0,0,0.008173828125000001,59.58720703125001,0)" xlink:href="#O"/><use transform="matrix(0.008173828125000001,0,0,0.008173828125000001,69.15058593750001,0)" xlink:href="#ab"/></g><path d="M763 24c-353 0-583-224-583-531v-983h190v968c0 214 149 370 393 370 243 0 391-156 391-370v-968h190v983c0 307-230 531-581 531" id="as"/><g id="w"><use transform="matrix(0.008173828125000001,0,0,0.008173828125000001,0,0)" xlink:href="#as"/><use transform="matrix(0.008173828125000001,0,0,0.008173828125000001,12.456914062500001,0)" xlink:href="#X"/><use transform="matrix(0.008173828125000001,0,0,0.008173828125000001,22.70689453125,0)" xlink:href="#T"/><use transform="matrix(0.008173828125000001,0,0,0.008173828125000001,29.008916015625,0)" xlink:href="#V"/><use transform="matrix(0.008173828125000001,0,0,0.008173828125000001,38.163603515625006,0)" xlink:href="#U"/><use transform="matrix(0.008173828125000001,0,0,0.008173828125000001,47.244726562500006,0)" xlink:href="#K"/><use transform="matrix(0.008173828125000001,0,0,0.008173828125000001,57.004277343750005,0)" xlink:href="#L"/><use transform="matrix(0.008173828125000001,0,0,0.008173828125000001,66.894609375,0)" xlink:href="#ab"/></g><path d="M158 0v-1490h180v865h22l478-493h223L593-638 1096 0H865L456-523 338-412V0H158" id="at"/><g id="x"><use transform="matrix(0.008173828125000001,0,0,0.008173828125000001,0,0)" xlink:href="#at"/><use transform="matrix(0.008173828125000001,0,0,0.008173828125000001,9.187382812500001,0)" xlink:href="#Q"/><use transform="matrix(0.008173828125000001,0,0,0.008173828125000001,19.085888671875004,0)" xlink:href="#T"/><use transform="matrix(0.008173828125000001,0,0,0.008173828125000001,25.64947265625,0)" xlink:href="#J"/><use transform="matrix(0.008173828125000001,0,0,0.008173828125000001,31.125937500000006,0)" xlink:href="#Q"/></g><path fill="#333" d="M128 0v-1118h300V0H128zm150-1264c-91 0-165-68-165-154 0-85 74-154 165-154 90 0 165 69 165 154 0 86-75 154-165 154" id="au"/><path fill="#333" d="M628 22C291 22 81-210 81-554c0-346 210-578 547-578 265 0 455 142 497 372l-279 52c-25-116-99-188-215-188-160 0-244 139-244 341 0 200 84 341 244 341 116 0 193-74 217-195l279 51C1085-123 896 22 628 22" id="av"/><path fill="#333" d="M428-1490V0H128v-1490h300" id="aw"/><path fill="#333" d="M513 14c-232 0-385-159-385-421v-711h300v659c0 139 76 222 202 222 127 0 217-86 217-234v-647h301V0H864l-4-232C797-74 683 14 513 14" id="ax"/><g id="y"><use transform="matrix(0.008680555555555556,0,0,0.008680555555555556,0,0)" xlink:href="#ae"/><use transform="matrix(0.008680555555555556,0,0,0.008680555555555556,12.065972222222223,0)" xlink:href="#ae"/><use transform="matrix(0.008680555555555556,0,0,0.008680555555555556,24.131944444444446,0)" xlink:href="#au"/><use transform="matrix(0.008680555555555556,0,0,0.008680555555555556,28.94965277777778,0)" xlink:href="#ai"/><use transform="matrix(0.008680555555555556,0,0,0.008680555555555556,40.017361111111114,0)" xlink:href="#av"/><use transform="matrix(0.008680555555555556,0,0,0.008680555555555556,50.47743055555556,0)" xlink:href="#aw"/><use transform="matrix(0.008680555555555556,0,0,0.008680555555555556,55.29513888888889,0)" xlink:href="#ax"/><use transform="matrix(0.008680555555555556,0,0,0.008680555555555556,66.36284722222223,0)" xlink:href="#aj"/><use transform="matrix(0.008680555555555556,0,0,0.008680555555555556,77.56944444444446,0)" xlink:href="#af"/><use transform="matrix(0.008680555555555556,0,0,0.008680555555555556,88.15972222222223,0)" xlink:href="#ak"/><use transform="matrix(0.008680555555555556,0,0,0.008680555555555556,100.22569444444447,0)" xlink:href="#ak"/></g><path d="M657 26c-323 0-524-166-541-416h195c15 169 171 246 346 246 202 0 356-106 356-265 5-203-294-238-475-293-239-73-380-191-380-389 0-252 224-419 512-419 294 0 499 171 508 396H992c-17-145-151-228-328-228-193 0-321 102-321 242 0 156 175 211 284 241l149 41c160 44 422 134 422 412 0 244-197 432-541 432" id="ay"/><g id="z"><use transform="matrix(0.008173828125000001,0,0,0.008173828125000001,0,0)" xlink:href="#ay"/><use transform="matrix(0.008173828125000001,0,0,0.008173828125000001,10.740410156250002,0)" xlink:href="#ao"/><use transform="matrix(0.008173828125000001,0,0,0.008173828125000001,25.404257812500006,0)" xlink:href="#V"/><use transform="matrix(0.008173828125000001,0,0,0.008173828125000001,34.804160156250006,0)" xlink:href="#ac"/><use transform="matrix(0.008173828125000001,0,0,0.008173828125000001,44.04875976562501,0)" xlink:href="#al"/><use transform="matrix(0.008173828125000001,0,0,0.008173828125000001,53.44866210937501,0)" xlink:href="#L"/><use transform="matrix(0.008173828125000001,0,0,0.008173828125000001,63.338994140625005,0)" xlink:href="#ab"/></g><g id="A"><use transform="matrix(0.008173828125000001,0,0,0.008173828125000001,0,0)" xlink:href="#Y"/><use transform="matrix(0.008173828125000001,0,0,0.008173828125000001,11.549619140625001,0)" xlink:href="#Z"/><use transform="matrix(0.008173828125000001,0,0,0.008173828125000001,21.202910156250002,0)" xlink:href="#J"/><use transform="matrix(0.008173828125000001,0,0,0.008173828125000001,27.006328125000003,0)" xlink:href="#U"/><use transform="matrix(0.008173828125000001,0,0,0.008173828125000001,36.087451171875,0)" xlink:href="#W"/><use transform="matrix(0.008173828125000001,0,0,0.008173828125000001,46.124912109375,0)" xlink:href="#aa"/><use transform="matrix(0.008173828125000001,0,0,0.008173828125000001,52.149023437500006,0)" xlink:href="#K"/><use transform="matrix(0.008173828125000001,0,0,0.008173828125000001,61.908574218750005,0)" xlink:href="#L"/><use transform="matrix(0.008173828125000001,0,0,0.008173828125000001,71.79890625,0)" xlink:href="#ab"/></g><path d="M537 14c-226 0-379-139-379-422v-710h180v695c0 172 97 275 253 275 160 0 281-109 281-300v-670h181V0H879v-209C806-46 684 14 537 14zm68-1203c-145 0-263-112-263-252 0-139 118-251 263-251s263 112 263 251c0 140-118 252-263 252zm0-126c70 0 126-56 126-126 0-69-56-125-126-125s-125 56-125 125c0 70 56 126 125 126" id="az"/><g id="B"><use transform="matrix(0.008173828125000001,0,0,0.008173828125000001,0,0)" xlink:href="#at"/><use transform="matrix(0.008173828125000001,0,0,0.008173828125000001,9.187382812500001,0)" xlink:href="#Q"/><use transform="matrix(0.008173828125000001,0,0,0.008173828125000001,19.085888671875004,0)" xlink:href="#T"/><use transform="matrix(0.008173828125000001,0,0,0.008173828125000001,25.64947265625,0)" xlink:href="#J"/><use transform="matrix(0.008173828125000001,0,0,0.008173828125000001,31.125937500000006,0)" xlink:href="#az"/></g><g id="C"><use transform="matrix(0.008173828125000001,0,0,0.008173828125000001,0,0)" xlink:href="#as"/><use transform="matrix(0.008173828125000001,0,0,0.008173828125000001,12.456914062500001,0)" xlink:href="#X"/><use transform="matrix(0.008173828125000001,0,0,0.008173828125000001,22.70689453125,0)" xlink:href="#T"/><use transform="matrix(0.008173828125000001,0,0,0.008173828125000001,29.008916015625,0)" xlink:href="#V"/><use transform="matrix(0.008173828125000001,0,0,0.008173828125000001,38.163603515625006,0)" xlink:href="#U"/><use transform="matrix(0.008173828125000001,0,0,0.008173828125000001,47.244726562500006,0)" xlink:href="#K"/><use transform="matrix(0.008173828125000001,0,0,0.008173828125000001,57.004277343750005,0)" xlink:href="#L"/><use transform="matrix(0.008173828125000001,0,0,0.008173828125000001,66.894609375,0)" xlink:href="#ab"/></g><g id="D"><use transform="matrix(0.008173828125000001,0,0,0.008173828125000001,0,0)" xlink:href="#ay"/><use transform="matrix(0.008173828125000001,0,0,0.008173828125000001,10.740410156250002,0)" xlink:href="#ao"/><use transform="matrix(0.008173828125000001,0,0,0.008173828125000001,25.404257812500006,0)" xlink:href="#V"/><use transform="matrix(0.008173828125000001,0,0,0.008173828125000001,34.804160156250006,0)" xlink:href="#ac"/><use transform="matrix(0.008173828125000001,0,0,0.008173828125000001,44.04875976562501,0)" xlink:href="#al"/><use transform="matrix(0.008173828125000001,0,0,0.008173828125000001,53.44866210937501,0)" xlink:href="#L"/><use transform="matrix(0.008173828125000001,0,0,0.008173828125000001,63.338994140625005,0)" xlink:href="#ab"/></g><g id="E"><use transform="matrix(0.008173828125000001,0,0,0.008173828125000001,0,0)" xlink:href="#X"/><use transform="matrix(0.008173828125000001,0,0,0.008173828125000001,10.249980468750001,0)" xlink:href="#W"/><use transform="matrix(0.008173828125000001,0,0,0.008173828125000001,19.96048828125,0)" xlink:href="#U"/><use transform="matrix(0.008173828125000001,0,0,0.008173828125000001,29.368564453125003,0)" xlink:href="#T"/><use transform="matrix(0.008173828125000001,0,0,0.008173828125000001,35.392675781250006,0)" xlink:href="#O"/><use transform="matrix(0.008173828125000001,0,0,0.008173828125000001,44.95605468750001,0)" xlink:href="#ar"/><use transform="matrix(0.008173828125000001,0,0,0.008173828125000001,54.85456054687501,0)" xlink:href="#Q"/></g><g id="F"><use transform="matrix(0.008173828125000001,0,0,0.008173828125000001,0,0)" xlink:href="#X"/><use transform="matrix(0.008173828125000001,0,0,0.008173828125000001,10.249980468750001,0)" xlink:href="#W"/><use transform="matrix(0.008173828125000001,0,0,0.008173828125000001,19.96048828125,0)" xlink:href="#U"/><use transform="matrix(0.008173828125000001,0,0,0.008173828125000001,29.368564453125003,0)" xlink:href="#T"/><use transform="matrix(0.008173828125000001,0,0,0.008173828125000001,35.392675781250006,0)" xlink:href="#O"/><use transform="matrix(0.008173828125000001,0,0,0.008173828125000001,44.95605468750001,0)" xlink:href="#ar"/><use transform="matrix(0.008173828125000001,0,0,0.008173828125000001,54.85456054687501,0)" xlink:href="#az"/></g><path d="M783 20c-382 0-661-292-661-764 0-473 279-766 661-766 302 0 548 182 601 489h-190c-42-204-217-313-411-313-268 0-476 208-476 590 0 381 209 588 476 588 195 0 369-110 411-313h190c-52 303-296 489-601 489" id="aA"/><path d="M645 0H180v-1490h484c435 0 692 280 692 742 0 466-257 748-711 748zM370-168h263c363 0 539-218 539-580 0-358-176-574-521-574H370v1154" id="aB"/><g id="G"><use transform="matrix(0.008173828125000001,0,0,0.008173828125000001,0,0)" xlink:href="#aA"/><use transform="matrix(0.008173828125000001,0,0,0.008173828125000001,12.228046875000002,0)" xlink:href="#an"/><use transform="matrix(0.008173828125000001,0,0,0.008173828125000001,23.001152343750004,0)" xlink:href="#as"/><use transform="matrix(0.008173828125000001,0,0,0.008173828125000001,35.458066406250005,0)" xlink:href="#aB"/></g><g id="H"><use transform="matrix(0.008173828125000001,0,0,0.008173828125000001,0,0)" xlink:href="#an"/><use transform="matrix(0.008173828125000001,0,0,0.008173828125000001,10.527890625000001,0)" xlink:href="#K"/><use transform="matrix(0.008173828125000001,0,0,0.008173828125000001,20.0422265625,0)" xlink:href="#ac"/><use transform="matrix(0.008173828125000001,0,0,0.008173828125000001,29.041611328125004,0)" xlink:href="#K"/><use transform="matrix(0.008173828125000001,0,0,0.008173828125000001,38.80116210937501,0)" xlink:href="#T"/><use transform="matrix(0.008173828125000001,0,0,0.008173828125000001,45.36474609375,0)" xlink:href="#U"/><use transform="matrix(0.008173828125000001,0,0,0.008173828125000001,54.691083984375005,0)" xlink:href="#V"/><use transform="matrix(0.008173828125000001,0,0,0.008173828125000001,64.09098632812501,0)" xlink:href="#O"/><use transform="matrix(0.008173828125000001,0,0,0.008173828125000001,73.654365234375,0)" xlink:href="#ab"/></g><path d="M52 0l541-1490h220L1361 0h-200l-149-416H398L254 0H52zm404-582h497c-103-290-145-390-251-756-108 377-145 460-246 756" id="aC"/><g id="I"><use transform="matrix(0.010850694444444444,0,0,0.010850694444444444,0,0)" xlink:href="#aC"/><use transform="matrix(0.010850694444444444,0,0,0.010850694444444444,15.33203125,0)" xlink:href="#O"/><use transform="matrix(0.010850694444444444,0,0,0.010850694444444444,28.02734375,0)" xlink:href="#J"/><use transform="matrix(0.010850694444444444,0,0,0.010850694444444444,35.080295138888886,0)" xlink:href="#W"/><use transform="matrix(0.010850694444444444,0,0,0.010850694444444444,48.404947916666664,0)" xlink:href="#T"/></g></defs></g></svg>